# xmcd
#
# Track frame offsets:
#   150
#   17109
#   30410
#   48372
#   68180
#   88405
#   103963
#   117529
#   133123
#   152492
#
# Disc length: 2279 seconds
#
# Revision: 0
# Processed by: cddbd v1.5PL3 Copyright (c) Steve Scherf et al.
# Submitted via: uFREEDB 1.6.0
#
DISCID=8808e50a
DTITLE=Johnny Winter - Still Alive And Well
DYEAR=1973
DGENRE=Blues
TTITLE0=Rock Me Baby
TTITLE1=Can't You Feel It
TTITLE2=Cheap Tequila
TTITLE3=All Tore Down
TTITLE4=Rock and Roll
TTITLE5=Silver Train
TTITLE6=Ain't Nothing To Me
TTITLE7=Still Alive And Well
TTITLE8=Too Much Seconal
TTITLE9=Let It Bleed
EXTD=
EXTT0=
EXTT1=
EXTT2=
EXTT3=
EXTT4=
EXTT5=
EXTT6=
EXTT7=
EXTT8=
EXTT9=
PLAYORDER=
